<svg width="21" height="38" viewBox="0 0 21 38" fill="none" xmlns="http://www.w3.org/2000/svg">
<path id="Arrow 1" d="M16.5 16.5C15.1193 16.5 14 17.6193 14 19C14 20.3807 15.1193 21.5 16.5 21.5L16.5 16.5ZM20.2678 20.7678C21.2441 19.7915 21.2441 18.2085 20.2678 17.2322L4.35786 1.32233C3.38155 0.346021 1.79864 0.346021 0.822329 1.32233C-0.153982 2.29864 -0.153982 3.88156 0.822329 4.85787L14.9645 19L0.822332 33.1421C-0.153979 34.1184 -0.153979 35.7014 0.822332 36.6777C1.79864 37.654 3.38156 37.654 4.35787 36.6777L20.2678 20.7678ZM16.5 21.5L18.5 21.5L18.5 16.5L16.5 16.5L16.5 21.5Z" fill="#E53FF8"/>
</svg>
